<svg xmlns="http://www.w3.org/2000/svg" width="20in" height="20in" viewBox="0 0 1440 1440"><defs><style>.a{fill:#f9fbfd;}.b{fill:#d8e1ee;}</style></defs><title>default-user-image</title><rect class="a" x="-1.1557" y="-1.1667" width="1442.3255" height="1442.3255"/><path class="b" d="M1260.3533,1441.1667c-1.1265-11.2638-1.9522-22.5276-3.36-33.7913-11.2638-98.558-38.2969-191.7656-87.8574-278.2151C1102.68,1013.1437,1010.5982,925.85,884.7255,876.852c-3.3789-1.1264-8.7293-1.1264-8.7293-5.6319,0-4.2239,5.0688-5.0688,8.1663-6.7583,57.1636-33.51,100.2474-80.2543,128.4069-139.6707,27.033-57.1636,36.8888-117.7063,28.4409-180.7835-9.8557-72.6512-40.8311-135.4468-92.3628-186.6969-47.8711-47.871-105.8794-78.2832-173.462-88.7022C661.14,251.4312,563.4268,283.8145,484.862,368.0113c-67.5826,72.37-95.1788,159.1007-83.07,257.3771,12.9534,104.19,66.4563,183.3179,155.44,238.51,3.0975,1.9712,9.2926,2.2527,8.4478,7.603-.8449,3.9422-6.1951,3.6607-9.5742,5.0687A512.3352,512.3352,0,0,0,391.6542,977.1c-94.6158,86.1678-154.8768,192.892-187.8234,315.6671-13.2349,48.434-19.4394,98.5578-24.508,148.4H-1.17V-1.1588H1441.1557V1441.1667"/></svg>