<svg xmlns="http://www.w3.org/2000/svg" width="6.4141in" height="6.33in" viewBox="0 0 461.8163 455.7627"><defs><style>.a{fill:#d8e1ee;}</style></defs><title>no-contacts-icon</title><path class="a" d="M177.3,457.2963c-34.3254,0-68.6511.0953-102.976-.035-21.2672-.0807-37.6066-13.04-41.0789-32.863-1.9211-10.9669.3129-21.92,2.0506-32.7661.8658-5.4039,2.1886-10.7481,3.5469-16.0572,5.3735-21.0023,17.3027-37.1245,35.9827-48.2631,8.2859-4.9408,16.9-9.2408,25.4179-13.7376,2.4662-1.302,3.6564-.6511,5.3562,1.2358,40.4,44.848,104.0282,44.7936,144.2476-.0761,1.2514-1.3961,2.0518-2.73,4.4526-1.5023,11.393,5.827,22.8824,11.4408,33.3626,18.8969,18.2473,12.982,26.819,31.6128,31.1458,52.778a222.26,222.26,0,0,1,3.77,29.2007c1.6525,23.8422-16.2367,42.9566-40.8025,43.11-34.8239.2169-69.65.055-104.4754.055Z" transform="translate(-2 -1.5674)"/><path class="a" d="M269.9694,229.5464c17.02,9.9174,34.9579,14.5289,54.2674,13.3452,26.4159-1.6193,48.3213-12.5989,65.7989-32.307,2.6482-2.9862,4.4469-3.3015,7.7745-1.3657,6.4531,3.7538,13.2038,6.993,19.7976,10.5083,24.045,12.819,37.3161,33.2539,42.3088,59.6373a258.0729,258.0729,0,0,1,3.7544,28.197c1.9062,24.7571-15.14,44.112-39.8063,44.4007-31.6559.37-63.3194.0749-94.98.1361-2.23.0043-3.6432-.5135-4.7039-2.6608-8.4194-17.0446-22.0325-29.0087-38.1882-38.3278-7.0448-4.0637-14.3539-7.669-21.54-11.4877-1.5459-.8216-3.4358-1.1373-2.0645-3.8848,10.2864-20.6093,12.4642-42.1946,7.4075-64.59A7.32,7.32,0,0,1,269.9694,229.5464Z" transform="translate(-2 -1.5674)"/><path class="a" d="M99.6716,253.2911a77.7383,77.7383,0,0,1,78.7508-77.7869c42.9586.2276,77.5482,35.505,77.3256,78.8631-.2181,42.4953-35.8834,77.4913-78.6539,77.1781A78.0355,78.0355,0,0,1,99.6716,253.2911Z" transform="translate(-2 -1.5674)"/><path class="a" d="M318.9488,70.406a78.0009,78.0009,0,0,1,.0482,156.0017c-42.8823.0672-78.1041-34.9061-78.12-77.569C240.86,105.0842,275.3231,70.4622,318.9488,70.406Z" transform="translate(-2 -1.5674)"/><path class="a" d="M58.6139,36.8516c0-5.3287-.1133-10.66.0235-15.9856C58.9253,9.657,67.0744,1.5539,77.89,1.5674c10.864.0136,19.0687,7.9891,19.3164,19.2416.2417,10.9855.1952,21.9817.0222,32.9692-.0513,3.2558.8439,4.2633,4.1752,4.1951,10.4866-.2144,20.9806-.12,31.4713-.0648,12.15.0639,20.8915,8.19,20.9686,19.39.0766,11.1342-8.7417,19.3886-20.82,19.4261-10.4909.0325-20.986.1692-31.4708-.0868-3.6379-.0888-4.4072,1.135-4.3424,4.51.2014,10.4871.1342,20.981.0539,31.4714-.091,11.8981-8.1331,20.5232-19.0976,20.6423-11.2394.1221-19.4977-8.5483-19.5617-20.65-.0563-10.6572-.1154-21.3166.0566-31.9714.0485-3.0052-.6844-4.025-3.8545-3.9691-10.8205.1911-21.6471.1166-32.4706.0383C10.6359,96.6245,1.9872,88.32,2,77.3173c.0126-10.7621,8.5169-19.1792,19.9422-19.377q16.2314-.2809,32.47.0131c3.2018.0529,4.4094-.7209,4.24-4.12-.2811-5.6477-.0765-11.32-.0765-16.9815Z" transform="translate(-2 -1.5674)"/></svg>