<?xml version="1.0" encoding="utf-8"?>
<!-- Generator: Adobe Illustrator 22.0.1, SVG Export Plug-In . SVG Version: 6.00 Build 0)  -->
<svg version="1.1" id="Layer_1" xmlns="http://www.w3.org/2000/svg" xmlns:xlink="http://www.w3.org/1999/xlink" x="0px" y="0px"
	 viewBox="0 0 1161.3 1029.8" style="enable-background:new 0 0 1161.3 1029.8;" xml:space="preserve">
<style type="text/css">
	.st0{fill:#C9D6E7;}
	.st1{fill:#F1F6FB;}
</style>
<g>
	<path class="st0" d="M236.9,892.2C160.9,842.2,97.9,780,55.6,698.7c-50.7-97.5-64.9-201-42.9-308c39.7-192.9,156.1-321.4,345-371.2
		C526-24.9,682,12.3,810.1,136.1c56.1,54.2,101.3,117.1,122.1,194.4c1.1,4.2,4.3,7.8,6.5,11.6c9.1,48.8,21.4,97.8,14.3,147.4
		c-6.1,43,9.9,68,48.7,81.8c52.8,46.1,82.1,103.2,80.7,174.2c-0.7,34-10.1,66.3-28,95.2c-8.5,13.7-6.1,21.6,5,32.1
		c28.3,26.4,55.5,54.1,82.9,81.5c20.3,20.3,22.8,44.4,6.7,61.1c-16.4,17-41,16.2-61.2-3.1c-29.7-28.3-58.7-57.3-88-85.8
		c-5.5-5.3-9.5-14.2-20.1-7.8c-59.1,35.8-122.1,38.8-187.3,21.4c-18.8-10.5-39.3-18.9-55.9-32.2c-14.9-11.9-25.7-11.2-41.7-3.1
		c-104.3,52.9-213.8,62.5-327.5,38C320.9,932.8,279.4,911.6,236.9,892.2z M985.3,675.9c-5.2-18.2-19.4-29.6-32.7-41.2
		c-6.3-5.5-16.7-21.3-22.7,1.7c-1.6,6.1-7,3.8-11,1.7c-7.4-4-15.2-5.6-23.5-5.8c0-1.4-0.1-2.8-0.4-4.2c2.8-7.8,18.3-17.2-2.2-22.4
		c-71.6-18-150.6,34.8-161.8,108c-4.5,39.7-1.9,77.5,29.7,107.2c30.5,40.3,70.7,56.9,120.7,50C977.2,860.3,1032.3,756.8,985.3,675.9
		z M115.4,726.8c1.6,2,3.1,4,4.7,6c20.8,36,50.2,65.1,82.2,90c144.4,112.4,301.6,125.8,468.6,56.3c19.1-8,20.2-15.4,9.4-32.5
		c-35.3-56.4-41.4-116.9-18.9-179.6C698.5,564.1,808,510,899.7,529c11.4,2.4,16.8-0.2,19.3-13.6c5.4-29.2,1.9-57.8-1.2-86.6
		c-9.8-91.6-44.4-172.1-107.7-239.6c-1.5-1.6-3-3.1-4.4-4.7l0.1,0.1c-1.8-2.4-3.3-5-5.3-7.1C701.9,73,580.9,28.5,438,40.2
		c-106.7,8.7-196.6,52.6-270.8,128.1C49.8,288,16,431.4,52.9,592.8c11.2,48.8,30.3,94.9,62.7,134.3L115.4,726.8z"/>
	<path class="st1" d="M236.9,892.2c42.5,19.4,84,40.6,130.4,50.6c113.7,24.5,223.2,15,327.5-38c16-8.1,26.8-8.8,41.7,3.1
		c16.6,13.2,37.1,21.7,55.9,32.2c-21.2,25.8-52.2,36-81.2,48.1c-56,23.4-115.5,36.5-176,33.5c-106.5-5.3-204.3-36.8-285.4-109.8
		C243.8,906.8,236.2,902,236.9,892.2z"/>
	<path class="st1" d="M1001.7,571.4c-38.8-13.9-54.8-38.8-48.7-81.8c7.1-49.6-5.2-98.6-14.3-147.4c14.7,5.6,16.6,20.5,21.4,32.1
		c18.8,45.2,34.6,91,34.7,141.5C994.9,533.8,1006,551.9,1001.7,571.4z"/>
	<path class="st1" d="M810.1,189.2c63.3,67.6,97.9,148,107.7,239.6c3.1,28.8,6.6,57.4,1.2,86.6c-2.5,13.4-7.9,16-19.3,13.6
		c-91.8-19.1-201.2,35.1-238.3,138c-22.6,62.7-16.4,123.2,18.9,179.6c10.7,17.2,9.7,24.6-9.4,32.5c-167,69.4-324.2,56.1-468.6-56.3
		c-32-24.9-61.4-54-82.2-90c-1.6-2-3.1-4-4.7-6c0,0,0.2,0.3,0.2,0.3c-1.7-7.9-3-16-5.3-23.8c-28.9-97.5-28.9-194.5,3.5-291.3
		c17.3-51.5,44-97.7,78.8-139.1c58.9-70.1,131.3-120.8,219.7-146.4c59-17.1,119-21.5,180.7-14.3c61.5,7.2,119.3,22.7,172.9,54.3
		c12.4,7.3,23.2,19.8,39.9,18.1c0,0-0.1-0.1-0.1-0.1C806.9,186.3,803.1,192.8,810.1,189.2z M593,525.1c-43.3,6.6-86.6,13-129.8,19.8
		c-30,4.7-60,9.9-90,15c-13.7,2.3-22.1,9.7-20,24.3c2.1,15.2,13.4,18.2,26.6,17.1c5.2-0.4,10.4-1,15.5-1.8
		c35.9-5.4,71.8-10.9,107.8-16.5c30.1-4.6,60.2-8.9,90.1-14.1c14.1-2.5,26.3-8.9,24.1-26.4C615.6,528.9,605.8,524.5,593,525.1z
		 M580.4,359.3c-23.8-0.2-39,12.6-38.8,32.6c0.1,20.6,14.9,34.2,37.8,34.6c23,0.4,37.9-12.7,38.1-33.4
		C617.7,370.7,605.3,359.4,580.4,359.3z M379.4,426.5c22,0,37-14.8,36.5-35.7c-0.5-19-15.7-31.5-38.1-31.5
		c-22.5,0-37.5,12.6-37.8,31.7C339.6,412.5,355.1,426.5,379.4,426.5z"/>
	<path class="st1" d="M895.1,628.2c-39.6-0.9-79.2-2.3-112.4,25.6C762.1,671,747,692.7,731,713.8c11.2-73.2,90.2-126,161.8-108
		C913.4,611,897.9,620.4,895.1,628.2z"/>
	<path class="st0" d="M593.1,525.1c12.7-0.6,22.5,3.8,24.2,17.4c2.2,17.5-9.9,23.9-24.1,26.4c-30,5.2-60.1,9.5-90.1,14.1
		c-35.9,5.5-71.8,11-107.8,16.5c-5.1,0.8-10.3,1.4-15.5,1.8c-13.2,1.1-24.4-1.9-26.6-17.1c-2.1-14.6,6.3-22,20-24.3
		c30-5,59.9-10.2,90-15C506.5,538.1,549.8,531.7,593.1,525.1z"/>
	<path class="st0" d="M580.4,359.3c24.9,0.2,37.2,11.4,37.1,33.8c-0.1,20.7-15.1,33.8-38.1,33.4c-22.9-0.4-37.7-13.9-37.8-34.6
		C541.5,371.9,556.7,359.1,580.4,359.3z"/>
	<path class="st0" d="M379.4,426.5c-24.3,0.1-39.8-13.9-39.4-35.5c0.4-19.1,15.3-31.7,37.8-31.7c22.4,0,37.5,12.5,38.1,31.5
		C416.4,411.7,401.4,426.4,379.4,426.5z"/>
</g>
</svg>
