<?xml version="1.0" encoding="utf-8"?>
<!-- Generator: Adobe Illustrator 22.0.1, SVG Export Plug-In . SVG Version: 6.00 Build 0)  -->
<svg version="1.1" id="Layer_1" xmlns="http://www.w3.org/2000/svg" xmlns:xlink="http://www.w3.org/1999/xlink" x="0px" y="0px"
	 viewBox="0 0 442 203.1" style="enable-background:new 0 0 442 203.1;" xml:space="preserve">
<style type="text/css">
	.st0{fill:#343434;}
	.st1{fill:#1CABED;}
</style>
<g>
	<path class="st0" d="M0.1,69.7c7.9,0,15.8,0,23.6,0c0.9,0,1.3,0.2,1.7,1.1c5.4,13,10.8,26,16.1,39c0.1,0.3,0.3,0.6,0.5,1
		c1.7-4,3.3-7.9,4.9-11.8C51,89.2,55,79.5,59,69.7c0.3-0.8,0.8-1,1.6-1s1.2,0.3,1.5,1c5.5,13.3,11,26.5,16.5,39.8
		c0.1,0.3,0.3,0.7,0.5,1.1c0.4-0.3,0.4-0.7,0.6-1c5.3-12.9,10.7-25.8,16-38.7c0.4-0.9,0.7-1.2,1.7-1.2c7.5,0.1,15,0,22.6,0
		c0.9,0,1.2,0.1,0.8,1.1c-12.9,30.9-25.8,61.7-38.7,92.6c-0.3,0.7-0.7,1-1.4,0.9c-1.2-0.1-2.7,0.4-3.6-0.2c-0.8-0.5-1-2.1-1.4-3.2
		c-4.8-12.1-9.7-24.2-14.5-36.3c-0.1-0.4-0.2-0.8-0.6-1.1c-0.8,2-1.5,4-2.3,5.9c-4.4,11.3-8.8,22.6-13.2,33.9
		c-0.3,0.8-0.7,1.1-1.5,1c-1.2-0.1-2.6,0.3-3.5-0.2c-0.8-0.5-1-2-1.5-3.1C26.1,131.1,13.5,101.1,1,71.2c-0.1-0.3-0.2-0.8-0.6-1
		C0.1,70,0.1,69.9,0.1,69.7z"/>
	<path class="st0" d="M379,165c-18.8-0.3-33.5-8.2-43.7-24c-5.5-8.5-7.2-18.1-6.5-28.1c0.1-2.1,0-4.2-0.1-6.3
		c-0.2-3.9,0.1-7.8,0.5-11.7c1.3-11.1,4.9-21.3,11.6-30.3c4.9-6.7,11-12.3,17.8-17.1c5.7-4.1,11.8-7.6,18-10.8
		c3.7-1.9,7.5-3.7,11.3-5.5c5.9-2.7,11.8-5.5,17.7-8.1c5.4-2.4,10.6-5,15.7-7.9c6.5-3.7,12.7-8,17.5-13.9c0.2-0.3,0.5-0.6,0.9-0.5
		c0.5,0.1,0.4,0.6,0.4,0.9c0.4,4.1,0.8,8.3,1,12.4c0.3,4.3,0.4,8.5,0.3,12.8c-0.1,5.2-0.5,10.3-1.2,15.5c-0.9,6.2-2.5,12.3-4.9,18.1
		c-2.8,6.8-6.7,12.9-11.6,18.3c-1.9,2.1-3.9,4-6.1,5.8c-0.7,0.6-0.7,0.9-0.1,1.6c6,6.7,9.9,14.5,11.2,23.4
		c2.4,17.5-3,32.1-16.6,43.5c-7.2,6-15.3,9.9-24.6,11.3C384.7,164.8,381.8,165,379,165z M378.9,92.3c-0.8,0-1.7,0-2.5,0
		s-1.6,0.1-2.4,0.3c-7.5,1.3-13.1,5.6-17.5,11.5c-4.6,6.3-5.4,13.3-2.8,20.6c3.4,9.3,15.2,19.8,30.9,16.4c6.9-1.5,12.3-5.5,16.4-11
		c5.4-7.3,6.2-15.6,1.7-23.4C397.6,97.7,389.7,92.4,378.9,92.3z"/>
	<path class="st0" d="M273.6,165c-18.9-0.3-33.7-8.3-43.9-24.3c-5.3-8.4-7-17.8-6.3-27.7c0.8-9.7,4.3-18.3,10.6-25.7
		c0.6-0.7,0.6-1-0.1-1.6c-5.1-4.3-9.4-9.3-12.9-15c-4.4-7.3-7.2-15.1-8.7-23.5c-1.1-5.8-1.6-11.7-1.7-17.7
		c-0.2-6.2,0.2-12.4,0.6-18.5c0.2-2.6,0.5-5.2,0.7-7.9c0-0.3,0-0.8,0.4-0.9c0.5-0.1,0.7,0.2,1,0.6c4.4,5.3,9.8,9.3,15.7,12.8
		c4.6,2.8,9.3,5.2,14.2,7.4c5.2,2.4,10.5,4.8,15.7,7.1c4.3,1.9,8.6,3.8,12.8,6c3,1.6,6.1,3,9.1,4.7c4.4,2.4,8.6,5.1,12.7,8
		c8.2,5.9,15.3,12.8,20.6,21.4c4,6.6,6.6,13.8,8,21.4c1,5.2,1.3,10.5,1.3,15.8c0,1.6,0.3,3.3,0.5,4.9c1.6,20.1-7,35-23.7,45.5
		C291.9,163,283,165,273.6,165z M273.6,92.2c-1.7,0-3.3,0.1-4.9,0.4c-7.5,1.3-13,5.6-17.4,11.4c-4.7,6.3-5.5,13.4-2.8,20.7
		c3.4,9.3,15.2,19.8,30.9,16.4c6.9-1.5,12.3-5.5,16.3-11c5.4-7.3,6.1-15.5,1.7-23.3C292.3,97.7,284.4,92.4,273.6,92.2z"/>
	<path class="st0" d="M207,117.1c0,15.3,0,30.6,0,46c0,1-0.2,1.3-1.2,1.3c-6.9-0.1-13.8,0-20.6,0c-1,0-1.3-0.2-1.2-1.2
		c0-11.1,0-22.2,0.1-33.4c0-1-0.2-1.2-1.2-1.2c-9.8,0-19.5,0-29.3,0c-1,0-1.2,0.2-1.2,1.2c0,11.1,0,22.2,0.1,33.4
		c0,1-0.3,1.2-1.2,1.2c-6.9,0-13.8,0-20.6,0c-0.9,0-1.2-0.1-1.2-1.1c0-30.8,0-61.6,0-92.4c0-0.9,0.3-1.1,1.1-1.1c7,0,13.9,0,20.9,0
		c1,0,1.1,0.3,1.1,1.1c0,11.2,0,22.3,0,33.5c0,1,0.2,1.3,1.3,1.3c9.7,0,19.4,0,29.2,0c1.1,0,1.3-0.3,1.3-1.3c0-11.1,0-22.2,0-33.4
		c0-0.9,0.1-1.3,1.2-1.3c6.8,0.1,13.7,0.1,20.5,0c1,0,1.4,0.2,1.4,1.3C207,86.4,207,101.7,207,117.1z"/>
	<path class="st0" d="M326,145.3c0.3,0,0.4,0.2,0.6,0.3c6,5.5,12,11.1,18.1,16.6c1.4,1.3,2.8,2.6,4.3,3.9c0.4,0.3,0.5,0.5,0.2,1.1
		c-3.1,4.8-6.1,9.7-9.2,14.5c-2.6,4.1-5.3,8.2-7.9,12.3c-1.7,2.6-3.3,5.3-5,7.9c-0.8,1.3-1.2,1.2-2-0.1
		c-5.4-8.4-10.7-16.9-16.1-25.3c-1.9-3-3.9-6.1-5.8-9.1c-0.3-0.5-0.4-0.9,0.2-1.4c4.8-4.4,9.6-8.8,14.4-13.2c2.6-2.3,5.1-4.7,7.7-7
		C325.5,145.6,325.7,145.3,326,145.3z"/>
	<path class="st1" d="M378.4,98.8c8.3-0.1,15.5,5.8,17.3,13.2c1.7,7-0.1,13.1-5.3,17.8c-4.6,4.2-10.1,5.6-16.2,4
		c-6-1.5-10.1-5.1-12.4-10.8c-1.4-3.5-1.6-7.1-0.7-10.8c0.1-0.2,0.1-0.5,0.4-0.5c0.3-0.1,0.5,0.1,0.7,0.4c0.8,1.1,1.6,2.1,2.7,2.8
		c4.4,3,10.9,1,12.7-4c1.5-4,0.3-7.9-3.3-10.4c-0.3-0.2-0.8-0.3-0.7-0.8c0.1-0.6,0.6-0.4,1-0.5C375.9,98.9,377.3,98.7,378.4,98.8z"
		/>
	<path class="st1" d="M255.5,116.8c-0.1-1.4,0.1-2.8,0.5-4.1c0.1-0.3,0.1-0.6,0.4-0.7c0.4-0.1,0.6,0.2,0.7,0.5
		c1.2,1.7,2.6,3.1,4.7,3.7c3,0.9,5.8,0.5,8.3-1.6c4.4-3.8,4.1-10.4-1-13.8c-0.3-0.2-0.7-0.3-0.6-0.8c0.1-0.6,0.6-0.4,1-0.5
		c5.4-1.2,10.4-0.2,14.7,3.1c5.5,4.2,7.8,9.9,6.9,16.8c-1,6.8-4.8,11.5-11.1,14.1c-7.2,3.1-16.7,0.2-21.1-6.3
		C256.6,124.1,255.5,120.6,255.5,116.8z"/>
</g>
</svg>
