<svg width="978" height="521" viewBox="0 0 978 521" fill="none" xmlns="http://www.w3.org/2000/svg">
<path d="M141.974 178.974C81.5691 222.798 101.507 405.494 119.026 491.365H852.625C876.807 453.858 925.17 405.494 925.17 335.91C925.17 289.865 882.235 230.793 865.95 197.481C849.664 164.169 854.846 103.468 811.91 72.3768C777.562 47.504 746.027 57.5716 686.806 47.9482C627.586 38.3248 563.183 -3.87007 478.793 0.57149C394.403 5.01305 382.559 82.7404 320.377 119.754C258.195 156.767 217.481 124.195 141.974 178.974Z" fill="#D9E7EF"/>
<path d="M177.845 331.956C177.099 251.578 170.817 195.575 160.666 137.436" stroke="#B5D1DD" stroke-width="2" stroke-linecap="round" stroke-linejoin="round"/>
<path d="M178.132 328.234C178.132 328.234 154.089 327.104 144.674 326.662C135.259 326.219 127.985 318.228 128.428 308.813C128.87 299.399 136.861 292.125 146.276 292.567C150.303 292.757 153.939 294.327 156.746 296.8C160.502 300.107 178.132 328.234 178.132 328.234Z" fill="#B5D1DD"/>
<path d="M178.09 328.239C178.09 328.239 201.07 321.077 210.068 318.273C219.067 315.469 224.088 305.901 221.283 296.902C218.479 287.904 208.911 282.883 199.913 285.687C196.063 286.887 192.942 289.324 190.849 292.425C188.05 296.573 178.09 328.239 178.09 328.239Z" fill="#B5D1DD"/>
<path d="M176.993 287.425C176.993 287.425 156.627 286.468 148.651 286.093C140.676 285.718 134.515 278.95 134.89 270.974C135.264 262.999 142.033 256.838 150.008 257.213C153.42 257.373 156.5 258.703 158.878 260.798C162.059 263.599 176.993 287.425 176.993 287.425Z" fill="#B5D1DD"/>
<path d="M176.958 287.429C176.958 287.429 196.423 281.363 204.046 278.987C211.668 276.612 215.922 268.507 213.546 260.885C211.17 253.262 203.066 249.009 195.443 251.385C192.183 252.401 189.538 254.465 187.766 257.092C185.395 260.606 176.958 287.429 176.958 287.429Z" fill="#B5D1DD"/>
<path d="M175.132 253.266C175.132 253.266 157.335 252.43 150.367 252.102C143.398 251.775 138.014 245.86 138.342 238.891C138.669 231.923 144.584 226.539 151.552 226.866C154.534 227.006 157.225 228.169 159.303 229.999C162.082 232.447 175.132 253.266 175.132 253.266Z" fill="#B5D1DD"/>
<path d="M175.101 253.27C175.101 253.27 192.11 247.969 198.771 245.893C205.431 243.818 209.148 236.735 207.072 230.075C204.996 223.415 197.914 219.698 191.254 221.774C188.405 222.662 186.094 224.466 184.545 226.761C182.473 229.831 175.101 253.27 175.101 253.27Z" fill="#B5D1DD"/>
<path d="M172.986 223.467C172.986 223.467 158.401 224.199 152.689 224.486C146.978 224.772 142.115 220.374 141.829 214.663C141.542 208.952 145.94 204.089 151.652 203.803C154.095 203.68 156.383 204.415 158.223 205.743C160.686 207.519 172.986 223.467 172.986 223.467Z" fill="#B5D1DD"/>
<path d="M172.961 223.473C172.961 223.473 186.417 217.797 191.686 215.574C196.955 213.352 199.424 207.278 197.202 202.009C194.979 196.74 188.906 194.271 183.637 196.494C181.383 197.444 179.641 199.1 178.56 201.096C177.114 203.765 172.961 223.473 172.961 223.473Z" fill="#B5D1DD"/>
<path d="M170.014 198.135C170.014 198.135 157.724 198.752 152.911 198.993C148.099 199.235 144.002 195.529 143.761 190.717C143.519 185.904 147.225 181.807 152.037 181.566C154.096 181.463 156.024 182.082 157.575 183.2C159.649 184.697 170.014 198.135 170.014 198.135Z" fill="#B5D1DD"/>
<path d="M169.993 198.14C169.993 198.14 181.331 193.357 185.77 191.484C190.21 189.612 192.291 184.494 190.418 180.055C188.545 175.615 183.428 173.534 178.988 175.407C177.089 176.208 175.621 177.603 174.71 179.285C173.492 181.534 169.993 198.14 169.993 198.14Z" fill="#B5D1DD"/>
<path d="M166.919 174.583C166.919 174.583 157.437 175.494 153.724 175.851C150.011 176.208 146.712 173.487 146.355 169.774C145.998 166.061 148.719 162.762 152.432 162.405C154.02 162.253 155.533 162.663 156.772 163.474C158.429 164.558 166.919 174.583 166.919 174.583Z" fill="#B5D1DD"/>
<path d="M166.903 174.588C166.903 174.588 175.501 170.488 178.868 168.883C182.235 167.278 183.663 163.247 182.058 159.88C180.453 156.513 176.422 155.085 173.055 156.69C171.615 157.377 170.529 158.507 169.884 159.84C169.021 161.623 166.903 174.588 166.903 174.588Z" fill="#B5D1DD"/>
<path d="M163.993 154.449C163.993 154.449 155.482 155.626 152.149 156.087C148.817 156.548 145.741 154.22 145.28 150.888C144.819 147.555 147.147 144.479 150.48 144.018C151.906 143.821 153.284 144.134 154.431 144.818C155.965 145.733 163.993 154.449 163.993 154.449Z" fill="#B5D1DD"/>
<path d="M163.979 154.453C163.979 154.453 171.574 150.436 174.548 148.863C177.522 147.29 178.658 143.604 177.085 140.63C175.511 137.656 171.825 136.52 168.851 138.093C167.579 138.766 166.643 139.826 166.112 141.051C165.401 142.69 163.979 154.453 163.979 154.453Z" fill="#B5D1DD"/>
<path d="M161.243 138.685C161.243 138.685 162.113 130.137 162.453 126.79C162.794 123.443 160.356 120.453 157.009 120.113C153.662 119.772 150.673 122.21 150.332 125.557C150.186 126.989 150.549 128.355 151.274 129.477C152.243 130.977 161.243 138.685 161.243 138.685Z" fill="#B5D1DD"/>
<path d="M831.617 400.228C859.09 288.996 886.224 213.392 919.424 136.099" stroke="#B5D1DD" stroke-width="2" stroke-linecap="round" stroke-linejoin="round"/>
<path d="M832.445 394.97C832.445 394.97 866.161 401.312 879.364 403.795C892.567 406.278 905.283 397.588 907.766 384.385C910.249 371.182 901.559 358.466 888.357 355.983C882.708 354.921 877.15 355.903 872.443 358.409C866.147 361.761 832.445 394.97 832.445 394.97Z" fill="#B5D1DD"/>
<path d="M832.5 394.991C832.5 394.991 802.985 377.501 791.428 370.651C779.87 363.802 776.054 348.881 782.903 337.324C789.752 325.766 804.673 321.949 816.231 328.798C821.175 331.728 824.702 336.136 826.584 341.125C829.102 347.798 832.5 394.991 832.5 394.991Z" fill="#B5D1DD"/>
<path d="M847.447 338.747C847.447 338.747 876.007 344.119 887.191 346.223C898.375 348.326 909.147 340.965 911.25 329.781C913.354 318.597 905.992 307.825 894.808 305.722C890.024 304.822 885.315 305.654 881.328 307.777C875.995 310.616 847.447 338.747 847.447 338.747Z" fill="#B5D1DD"/>
<path d="M847.493 338.765C847.493 338.765 822.492 323.949 812.702 318.147C802.912 312.346 799.679 299.706 805.481 289.916C811.283 280.126 823.922 276.893 833.712 282.695C837.9 285.176 840.888 288.91 842.483 293.136C844.615 298.789 847.493 338.765 847.493 338.765Z" fill="#B5D1DD"/>
<path d="M861.263 291.985C861.263 291.985 886.22 296.679 895.993 298.517C905.765 300.355 915.177 293.923 917.015 284.15C918.853 274.377 912.421 264.965 902.649 263.127C898.468 262.341 894.353 263.068 890.869 264.923C886.209 267.403 861.263 291.985 861.263 291.985Z" fill="#B5D1DD"/>
<path d="M861.304 292C861.304 292 839.458 279.054 830.903 273.984C822.349 268.915 819.524 257.87 824.593 249.316C829.663 240.761 840.708 237.936 849.262 243.005C852.922 245.174 855.533 248.436 856.926 252.129C858.789 257.069 861.304 292 861.304 292Z" fill="#B5D1DD"/>
<path d="M874.041 251.363C874.041 251.363 894.028 257.175 901.855 259.451C909.682 261.727 917.872 257.227 920.148 249.4C922.424 241.573 917.924 233.384 910.097 231.108C906.749 230.134 903.334 230.4 900.345 231.637C896.345 233.29 874.041 251.363 874.041 251.363Z" fill="#B5D1DD"/>
<path d="M874.073 251.379C874.073 251.379 857.278 239.081 850.702 234.265C844.126 229.45 842.698 220.215 847.514 213.638C852.33 207.062 861.565 205.634 868.141 210.45C870.954 212.51 872.825 215.379 873.668 218.502C874.796 222.68 874.073 251.379 874.073 251.379Z" fill="#B5D1DD"/>
<path d="M886.495 217.208C886.495 217.208 903.337 222.105 909.932 224.023C916.527 225.941 923.428 222.149 925.345 215.554C927.263 208.959 923.471 202.058 916.876 200.14C914.055 199.32 911.178 199.544 908.659 200.586C905.289 201.98 886.495 217.208 886.495 217.208Z" fill="#B5D1DD"/>
<path d="M886.522 217.221C886.522 217.221 872.371 206.859 866.83 202.801C861.289 198.743 860.086 190.962 864.144 185.421C868.201 179.879 875.983 178.677 881.524 182.734C883.895 184.47 885.471 186.887 886.182 189.519C887.132 193.04 886.522 217.221 886.522 217.221Z" fill="#B5D1DD"/>
<path d="M898.534 185.562C898.534 185.562 911.385 189.944 916.417 191.66C921.449 193.376 926.92 190.688 928.636 185.656C930.352 180.624 927.664 175.153 922.632 173.437C920.479 172.703 918.246 172.775 916.261 173.492C913.606 174.45 898.534 185.562 898.534 185.562Z" fill="#B5D1DD"/>
<path d="M898.555 185.573C898.555 185.573 887.978 177.059 883.836 173.726C879.694 170.392 879.039 164.332 882.373 160.19C885.707 156.049 891.767 155.394 895.909 158.727C897.68 160.153 898.814 162.078 899.27 164.139C899.881 166.895 898.555 185.573 898.555 185.573Z" fill="#B5D1DD"/>
<path d="M909.214 158.6C909.214 158.6 920.631 163.032 925.101 164.767C929.572 166.503 934.603 164.286 936.338 159.815C938.074 155.345 935.857 150.314 931.386 148.578C929.474 147.836 927.459 147.817 925.643 148.388C923.215 149.152 909.214 158.6 909.214 158.6Z" fill="#B5D1DD"/>
<path d="M909.232 158.611C909.232 158.611 900.02 150.541 896.413 147.381C892.806 144.221 892.443 138.735 895.603 135.128C898.763 131.521 904.249 131.158 907.856 134.318C909.399 135.67 910.349 137.447 910.683 139.321C911.129 141.828 909.232 158.611 909.232 158.611Z" fill="#B5D1DD"/>
<path d="M918.214 137.641C918.214 137.641 919.819 125.501 920.447 120.746C921.076 115.992 925.44 112.648 930.194 113.276C934.948 113.905 938.292 118.268 937.664 123.023C937.395 125.056 936.443 126.832 935.069 128.149C933.23 129.911 918.214 137.641 918.214 137.641Z" fill="#B5D1DD"/>
<path d="M111.911 403.688C80.1243 363.834 55.0991 338.319 27.3074 313.248" stroke="#306F9B" stroke-width="2" stroke-linecap="round" stroke-linejoin="round"/>
<path d="M110.599 401.717C110.599 401.717 98.1495 410.549 93.2743 414.008C88.3991 417.466 81.6432 416.318 78.1846 411.443C74.726 406.568 75.8743 399.812 80.7495 396.353C82.835 394.874 85.2647 394.237 87.6332 394.375C90.8014 394.559 110.599 401.717 110.599 401.717Z" fill="#306F9B"/>
<path d="M110.581 401.735C110.581 401.735 119.259 389.178 122.657 384.26C126.056 379.343 124.824 372.601 119.907 369.203C114.989 365.805 108.248 367.037 104.85 371.954C103.396 374.058 102.789 376.495 102.956 378.862C103.18 382.027 110.581 401.735 110.581 401.735Z" fill="#306F9B"/>
<path d="M94.0815 381.78C94.0815 381.78 83.5354 389.261 79.4058 392.191C75.2761 395.121 69.5533 394.148 66.6236 390.018C63.6938 385.889 64.6666 380.166 68.7962 377.236C70.5628 375.983 72.621 375.444 74.6273 375.56C77.311 375.716 94.0815 381.78 94.0815 381.78Z" fill="#306F9B"/>
<path d="M94.0659 381.795C94.0659 381.795 101.417 371.158 104.296 366.993C107.174 362.827 106.131 357.117 101.965 354.238C97.8 351.359 92.0896 352.403 89.211 356.568C87.9796 358.35 87.4659 360.415 87.6073 362.42C87.7964 365.101 94.0659 381.795 94.0659 381.795Z" fill="#306F9B"/>
<path d="M79.8016 365.446C79.8016 365.446 70.5864 371.984 66.9779 374.544C63.3693 377.104 58.3687 376.254 55.8087 372.645C53.2487 369.037 54.0986 364.036 57.7072 361.476C59.2509 360.381 61.0493 359.91 62.8024 360.012C65.1475 360.148 79.8016 365.446 79.8016 365.446Z" fill="#306F9B"/>
<path d="M79.788 365.46C79.788 365.46 86.2115 356.165 88.7269 352.525C91.2422 348.885 90.3306 343.896 86.6908 341.38C83.0509 338.865 78.0612 339.776 75.5458 343.416C74.4698 344.973 74.0209 346.777 74.1444 348.529C74.3097 350.872 79.788 365.46 79.788 365.46Z" fill="#306F9B"/>
<path d="M67.0837 351.402C67.0837 351.402 60.085 357.468 57.3444 359.843C54.6038 362.218 50.4566 361.922 48.0813 359.181C45.706 356.441 46.0022 352.294 48.7428 349.918C49.9152 348.902 51.345 348.375 52.7833 348.319C54.7074 348.244 67.0837 351.402 67.0837 351.402Z" fill="#306F9B"/>
<path d="M67.0737 351.414C67.0737 351.414 71.5757 343.32 73.3387 340.151C75.1016 336.982 73.9614 332.983 70.7921 331.22C67.6227 329.457 63.6243 330.598 61.8614 333.767C61.1072 335.123 60.8843 336.63 61.1243 338.05C61.4452 339.948 67.0737 351.414 67.0737 351.414Z" fill="#306F9B"/>
<path d="M55.6987 339.911C55.6987 339.911 49.8016 345.022 47.4923 347.024C45.1831 349.025 41.6886 348.776 39.6872 346.466C37.6858 344.157 37.9353 340.663 40.2446 338.661C41.2324 337.805 42.4372 337.361 43.6492 337.314C45.2703 337.25 55.6987 339.911 55.6987 339.911Z" fill="#306F9B"/>
<path d="M55.6903 339.922C55.6903 339.922 59.4837 333.102 60.9692 330.431C62.4546 327.761 61.4939 324.392 58.8234 322.906C56.1529 321.421 52.7838 322.382 51.2983 325.052C50.6629 326.194 50.4751 327.465 50.6773 328.661C50.9477 330.26 55.6903 339.922 55.6903 339.922Z" fill="#306F9B"/>
<path d="M44.9482 329.358C44.9482 329.358 40.5686 333.519 38.8536 335.148C37.1386 336.777 34.4275 336.708 32.7981 334.993C31.1688 333.278 31.2382 330.567 32.9532 328.937C33.6869 328.24 34.6028 327.854 35.5384 327.775C36.7898 327.669 44.9482 329.358 44.9482 329.358Z" fill="#306F9B"/>
<path d="M44.942 329.366C44.942 329.366 47.6345 323.958 48.6888 321.841C49.7431 319.723 48.8811 317.152 46.7634 316.097C44.6458 315.043 42.0744 315.905 41.0201 318.023C40.5691 318.928 40.4688 319.917 40.6674 320.835C40.9331 322.063 44.942 329.366 44.942 329.366Z" fill="#306F9B"/>
<path d="M35.6179 320.445C35.6179 320.445 31.8272 324.359 30.3428 325.892C28.8585 327.425 26.4126 327.464 24.8798 325.98C23.3471 324.495 23.3078 322.049 24.7922 320.517C25.4272 319.861 26.2381 319.479 27.0783 319.372C28.2021 319.229 35.6179 320.445 35.6179 320.445Z" fill="#306F9B"/>
<path d="M35.6126 320.453C35.6126 320.453 37.8359 315.478 38.7066 313.53C39.5772 311.582 38.7038 309.297 36.7557 308.426C34.8077 307.556 32.5228 308.429 31.6522 310.377C31.2797 311.211 31.2265 312.106 31.4399 312.925C31.7255 314.021 35.6126 320.453 35.6126 320.453Z" fill="#306F9B"/>
<path d="M28.0833 313.646C28.0833 313.646 25.1771 309.037 24.039 307.232C22.901 305.428 20.5153 304.887 18.7104 306.025C16.9055 307.163 16.3649 309.549 17.503 311.354C17.9898 312.126 18.705 312.667 19.5053 312.943C20.5759 313.314 28.0833 313.646 28.0833 313.646Z" fill="#306F9B"/>
<path d="M781.87 407.369C772.344 437.619 781.408 469.574 787.83 482.607C807.702 480.768 854.962 473.121 877.21 443.817C898.349 415.975 916.201 341.141 912.98 305.566C873.365 324.304 798.393 354.895 781.87 407.369Z" fill="#76AACF"/>
<path d="M911.574 304.817C911.574 304.817 794.518 446.788 782.181 466.431C776.069 454.638 766.138 428.261 790.625 388.524C816.849 345.969 879.032 316.25 911.574 304.817Z" fill="#5394BB"/>
<path d="M782.288 466.468L820.862 416.485M911.992 305.718L848.841 383.345M820.862 416.485L830.913 361.613M820.862 416.485L848.841 383.345M848.841 383.345L900.725 374.924" stroke="#306F9B" stroke-width="2" stroke-linecap="round" stroke-linejoin="round"/>
<path d="M823.903 427.322C808.781 445.337 805.795 469.846 806.428 480.623C820.449 485.054 854.731 493.349 878.222 479.628C900.542 466.59 933.96 420.728 941.949 395.41C909.686 396.911 850.134 396.072 823.903 427.322Z" fill="#76AACF"/>
<path d="M941.023 394.148C941.023 394.148 820.37 466.02 806.373 475.956C805.596 466.118 807.243 437.142 835.239 416.907C865.221 395.237 915.654 392.666 941.023 394.148Z" fill="#5394BB"/>
<path d="M912.474 429.622L879.042 432.463M870.207 467.328L821.792 466.576M821.792 466.576L806.667 475.94M821.792 466.576L854.288 447.213L940.983 395.151" stroke="#306F9B" stroke-width="2" stroke-linecap="round" stroke-linejoin="round"/>
<path d="M209.976 409.19C210.406 444.614 190.406 475.865 179.334 487.731C158.676 479.355 110.6 455.934 96.2576 417.419C82.6304 380.825 87.7313 294.919 102.649 257.911C138.972 290.728 209.23 347.742 209.976 409.19Z" fill="#76AACF"/>
<path d="M104.058 257.521C104.058 257.521 183.735 447.268 190.594 472.254C200.933 461.614 220.062 436.608 206.691 386.213C192.372 332.244 135.173 280.245 104.058 257.521Z" fill="#5394BB"/>
<path d="M191.021 471.877L146.769 364.287M103.542 258.379L146.769 364.287M146.769 364.287L102.517 337.833" stroke="#306F9B" stroke-width="2" stroke-linecap="round" stroke-linejoin="round"/>
<path d="M156.778 426.866C169.701 448.91 168.444 475.704 165.807 487.132C149.984 489.33 111.758 491.982 89.0911 473.016C67.5543 454.996 40.0966 399.688 36.1409 371.119C70.424 378.591 134.362 388.627 156.778 426.866Z" fill="#76AACF"/>
<path d="M37.1646 370.018C37.1646 370.018 153.528 468.957 166.714 482.142C169.335 471.747 172.837 440.412 146.529 413.651C118.355 384.991 64.6067 373.042 37.1646 370.018Z" fill="#5394BB"/>
<path d="M61.4937 413.231L96.7858 422.351M99.9109 461.299L151.904 469.294M151.904 469.294L166.402 482.072M151.904 469.294L120.618 442.648L37.1646 371.016" stroke="#306F9B" stroke-width="2" stroke-linecap="round" stroke-linejoin="round"/>
<ellipse cx="479.533" cy="491.734" rx="393.819" ry="29.2403" fill="#B5D1DD"/>
<circle cx="354.996" cy="486.979" r="5.26631" fill="#154664"/>
<circle cx="382.006" cy="486.979" r="5.26631" fill="#154664"/>
<circle cx="409.017" cy="486.979" r="5.26631" fill="#154664"/>
<rect x="378.394" y="382.133" width="7.22475" height="98.5662" fill="#154664"/>
<rect x="346.399" y="478.377" width="71.2154" height="4.64448" rx="2.32224" fill="#154664"/>
<rect x="362.218" y="336.906" width="7.79128" height="24.4363" fill="#154664"/>
<rect x="338.271" y="360.274" width="87.9871" height="28.1249" rx="5" fill="#19AAEE"/>
<rect x="329.063" y="273.041" width="87.9871" height="71.437" rx="5" fill="#19AAEE"/>
<path d="M439.57 483.345L433.41 429.303L451.069 430.118C451.522 442.434 452.455 468.234 452.563 472.907C452.672 477.58 457.511 480.291 462.174 483.914V491.392L439.57 483.345Z" fill="#FBC2A2"/>
<path d="M470.648 482.195L464.11 429.303L482.855 424.956C482.855 438.54 483.045 467.148 483.806 472.907C484.567 478.667 489.637 481.318 493.26 484.216L494.075 490.665L470.648 482.195Z" fill="#FBC2A2"/>
<path d="M442.925 490.396C439.747 488.672 439.132 482.832 439.221 480.296C446.889 486.677 456.697 488.527 460.198 487.18C462.975 486.112 461.779 483.595 461.779 483.595C465.505 486.468 472.846 493.471 470.398 494.032C462.183 495.918 447.596 492.93 442.925 490.396Z" fill="#154664"/>
<path d="M473.024 489.925C471.174 488.117 470.376 482.72 470.398 480.296C475.044 484.201 489.555 487.955 492.316 486.878C494.524 486.016 492.485 483.595 492.485 483.595C496.345 486.221 503.745 492.465 501.575 494.032C497.939 496.658 475.92 492.753 473.024 489.925Z" fill="#154664"/>
<path d="M376.556 368.772C371.832 364.148 371.717 347.133 372.128 338.73L438.588 341.903C451.912 346.106 478.473 360.249 483.409 367.3C488.345 374.352 490.71 411.419 490.592 428.46C468.777 435.768 455.31 436.214 429.774 432.515C429.539 420.821 428.716 396.341 427.306 391.969C425.543 386.504 383.473 375.542 376.556 368.772Z" fill="#154664"/>
<path d="M395.211 362.036C395.211 362.036 352.928 329.098 351.855 316.382C350.783 303.666 357.81 258.538 368.387 250.703C377.138 244.222 396.641 238.964 407.161 236.717C415.332 239.883 432.654 246.828 436.576 249.279C441.478 252.343 451.896 294.933 456.186 298.763C459.618 301.828 474.264 289.214 481.158 282.524L490.656 291.716C484.249 303.852 468.777 326.297 459.047 327.238C450.753 328.041 442.244 319.497 439.027 315.156V342.733C425.442 346.255 417.58 346.157 403.178 342.733L408.54 351.618L395.211 362.036Z" fill="#306F9B"/>
<path d="M404.157 343.324C399.862 338.105 382.443 314.483 382.443 312.942C382.443 311.4 383.888 289.576 384.611 278.857M438.902 314.69L437.966 295.839C439.251 293.832 441.796 288.661 441.7 284.036C441.603 279.411 437.163 273.277 434.955 270.788" stroke="#154664" stroke-linecap="round"/>
<path d="M405.09 354.287L398.085 359.733C402.169 364.004 403.255 377.39 405.422 377.39C406.137 377.39 406.018 373.858 405.422 372.232C406.728 373.904 408.572 377.223 409.973 376.466C410.993 375.915 409.476 372.484 408.102 370.24C409.613 372.163 412.328 376.654 413.771 375.849C415.006 375.161 413.091 372.232 411.845 369.564C413.448 371.464 416.128 375.803 417.857 374.842C419.161 374.118 414.31 366.075 412.157 362.342C414.058 362.525 418.534 362.079 419.066 360.766C419.656 359.309 416.044 359.749 412.824 359.217C409.194 358.617 407.013 355.707 405.09 354.287Z" fill="#FBC2A2"/>
<path d="M482.233 283.574L488.823 289.961C491.14 284.525 503.637 276.538 502.783 274.546C502.501 273.89 499.302 275.391 498.042 276.578C499.065 274.72 501.389 271.716 500.141 270.727C499.233 270.007 496.677 272.754 495.156 274.901C496.328 272.754 499.386 268.489 498.077 267.479C496.958 266.616 495.021 269.53 493.06 271.726C494.175 269.504 497.107 265.332 495.543 264.121C494.363 263.208 488.882 270.835 486.299 274.285C485.718 272.465 483.545 268.527 482.128 268.556C480.557 268.587 482.042 271.376 482.822 274.546C483.7 278.119 482.78 281.247 482.233 283.574Z" fill="#FBC2A2"/>
<path d="M380.596 208.706C382.756 215.152 388.584 222.706 399.975 228.944L422.229 211.112C423.911 206.734 428.958 190.445 412.616 182.449C406.484 179.449 396.543 180.674 394.04 181.532C392.085 177.98 383.563 171.83 377.02 178.171C369.36 185.595 375.352 193.188 380.095 197.05C380.119 199.314 379.147 204.384 380.596 208.706Z" fill="#154664"/>
<path d="M399.168 227.46V241.977C405.067 244.784 408.324 244.992 414.008 241.977V230.041C414.734 229.745 416.831 228.541 419.412 226.089C421.993 223.637 422.907 216.894 423.041 213.83C424.358 212.969 426.88 210.797 426.428 208.99C425.864 206.732 423.049 207.627 423.041 207.861C423.428 199.215 413.416 193.828 408.362 192.215C403.195 200.824 399.358 204.932 392.635 212.862C390.941 211.813 387.78 211.023 387.07 214.314C386.36 217.604 390.484 218.588 392.635 218.669L399.168 227.46Z" fill="#FBC2A2"/>
<path d="M540.974 482.307L562.745 432.463L545.627 428.052C541.574 439.69 533.1 464.077 531.623 468.511C530.146 472.946 525.267 475.558 519.744 477.65L517.004 483.355L540.974 482.307Z" fill="#FBC2A2"/>
<path d="M535.695 488.061C539.24 487.347 541.544 481.946 542.204 479.495C532.999 483.341 522.92 482.981 519.969 480.664C518.495 479.508 520.101 477.522 520.101 477.522C515.696 479.173 506.403 485.522 508.577 486.779C515.876 490.995 530.486 489.11 535.695 488.061Z" fill="#19AAEE"/>
<path d="M634.865 486.966L636.577 440.443L622.851 435.977C618.798 447.616 622.869 474.418 621.392 478.852C619.084 481.607 616.495 483.162 610.972 485.253L608.232 490.958L634.865 486.966Z" fill="#FBC2A2"/>
<path d="M631.334 495.301C634.879 494.588 634.9 489.282 634.9 486.837C625.521 488.362 614.148 490.584 611.197 488.268C609.723 487.111 611.329 485.126 611.329 485.126C606.924 486.777 598.328 494.045 600.502 495.301C607.8 499.518 626.125 496.35 631.334 495.301Z" fill="#19AAEE"/>
<path d="M567.844 342.014C570.135 338.085 589.999 293.434 599.547 272.018C602.353 273.228 607.874 274.275 611.708 274.275C616.501 274.275 621.656 272.858 626.627 272.858C631.928 272.858 638.172 275.52 641.713 278.442C645.254 281.364 658.355 300.244 660.711 310.407C663.601 322.874 649.987 391.596 649.987 396.507C649.987 404.088 651.214 410.541 649.987 416.27C649.005 420.853 643.547 435.04 640.273 441.45L638.227 474.187H618.585V441.45C618.585 435.885 615.775 425.615 615.516 418.944C615.257 412.273 613.266 335.466 613.266 335.466C606.171 349.473 598.108 379.075 594.834 383.331C590.742 388.651 583.803 399.302 581.757 402.576C579.711 405.85 577.73 415.67 575.684 418.944C573.638 422.218 570.708 424.673 567.844 427.947C565.552 430.566 563.802 435.838 562.661 441.45C561.521 447.063 551.171 467.133 551.171 467.133L526.923 459.455C534.835 440.905 549.862 402.559 551.171 398.958C552.808 394.456 553.522 373.113 555.158 366.157C556.795 359.2 564.979 346.924 567.844 342.014Z" fill="#5394BB"/>
<path d="M652.911 315.014L661.921 316.757C658.792 321.77 659.403 336.588 657.282 337.029C656.582 337.175 655.98 333.693 656.232 331.98C655.294 333.882 654.164 337.508 652.638 337.051C651.527 336.719 652.315 333.051 653.203 330.574C652.115 332.765 650.371 337.715 648.794 337.22C647.445 336.797 648.723 333.54 649.401 330.674C648.218 332.862 646.477 337.655 644.589 337.066C643.164 336.622 646.277 327.76 647.625 323.667C645.802 324.233 641.328 324.708 640.54 323.53C639.666 322.224 642.803 321.844 645.848 320.667C649.28 319.341 651.317 316.795 652.911 315.014Z" fill="#FBC2A2"/>
<path d="M652.834 315.084C662.526 289.664 664.243 275.544 660.167 251.115L675.742 244.793C678.101 281.28 676.853 298.575 661.792 316.887L652.834 315.084Z" fill="#FBC2A2"/>
<path d="M551.14 240.519C556.533 242.573 568.998 230.597 574.348 225.139L584.781 238.943C578.04 245.738 561.957 259.168 551.555 258.526C541.154 257.884 524.75 234.93 517.848 223.534L524.348 216.77C527.923 224.689 545.747 238.464 551.14 240.519Z" fill="#FBC2A2"/>
<path d="M524.509 217.268L517.919 223.655C515.603 218.219 503.106 210.232 503.96 208.24C504.241 207.584 507.44 209.085 508.7 210.272C507.678 208.414 505.353 205.411 506.601 204.421C507.51 203.701 510.066 206.448 511.587 208.595C510.414 206.448 507.356 202.183 508.665 201.173C509.784 200.31 511.722 203.224 513.683 205.42C512.568 203.198 509.636 199.026 511.2 197.815C512.38 196.902 517.861 204.53 520.444 207.979C521.024 206.16 523.197 202.221 524.614 202.25C526.185 202.281 524.701 205.07 523.921 208.24C523.042 211.813 523.962 214.941 524.509 217.268Z" fill="#FBC2A2"/>
<path d="M680.04 208.101C684.085 220.48 673.851 225.651 668.182 226.111L582.118 218.332C578.594 215.166 571.976 208.96 572.589 202.832C573.202 196.704 584.057 193.18 585.589 188.124C587.121 183.069 581.965 174.976 583.956 170.686C586.867 164.417 591.305 164.767 593.998 158.485C595.836 154.195 593.986 134.766 615.976 135.603C644.294 136.682 637.79 158.792 641.62 164.767C645.45 170.742 652.83 167.582 659.332 174.976C664.5 180.853 658.778 187.816 663.067 194.097C667.357 200.379 675.996 195.722 680.04 208.101Z" fill="#154664"/>
<path d="M586.395 243.549L590.829 240.17C592.37 251.287 591.078 266.813 601.523 274.376C613.769 279.444 622.775 273.844 629.047 274.376C633.675 274.77 634.227 279.515 640.984 278.037C646.39 276.855 652.375 255.324 654.557 244.766L657.938 254.426L680.153 245.986C673.98 229.702 663.852 194.14 626.724 194.14C598.936 194.14 577.362 214.089 568.353 225.069L586.395 243.549Z" fill="#B5D1DD"/>
<path d="M624.242 181.258L626.646 195.575C621.292 199.32 618.115 200.064 612.011 198.032L610.034 186.26C609.27 186.088 607.002 185.248 604.051 183.257C601.1 181.266 599.082 174.768 598.442 171.768C597.001 171.137 594.154 169.412 594.3 167.556C594.483 165.235 597.407 165.652 597.454 165.882C595.641 157.419 604.623 150.448 609.34 148.021C615.861 155.656 620.326 159.072 628.268 165.779C629.765 164.465 632.752 163.162 633.997 166.29C635.242 169.417 631.337 171.071 629.23 171.506L624.242 181.258Z" fill="#FBC2A2"/>
<circle r="5.26631" transform="matrix(-1 0 0 1 807.217 486.351)" fill="#154664"/>
<circle r="5.26631" transform="matrix(-1 0 0 1 780.207 486.351)" fill="#154664"/>
<circle r="5.26631" transform="matrix(-1 0 0 1 753.196 486.351)" fill="#154664"/>
<rect width="7.22475" height="98.5662" transform="matrix(-1 0 0 1 783.819 381.505)" fill="#154664"/>
<rect width="71.2154" height="4.64448" rx="2.32224" transform="matrix(-1 0 0 1 815.814 477.749)" fill="#154664"/>
<rect width="7.79128" height="24.4363" transform="matrix(-1 0 0 1 799.995 336.278)" fill="#154664"/>
<rect width="87.9871" height="28.1249" rx="5" transform="matrix(-1 0 0 1 823.942 359.646)" fill="#19AAEE"/>
<rect width="87.9871" height="71.437" rx="5" transform="matrix(-1 0 0 1 833.15 272.413)" fill="#19AAEE"/>
<path d="M763.633 485.023V470.269H751.919V485.023H763.633Z" fill="#FBC2A2"/>
<path d="M763.82 493.074V480.206L752.037 480.206C743.408 482.218 736.283 487.174 732.27 491.17C731.123 492.312 731.988 494.074 733.607 494.074H762.82C763.372 494.074 763.82 493.626 763.82 493.074Z" fill="#154664"/>
<path d="M720.37 485.225V467.308H708.656V485.225H720.37Z" fill="#FBC2A2"/>
<path d="M720.37 494.414V481.546L708.586 481.546C699.958 483.558 692.833 488.514 688.82 492.511C687.673 493.652 688.538 495.414 690.156 495.414H719.37C719.922 495.414 720.37 494.966 720.37 494.414Z" fill="#154664"/>
<path d="M754.757 319.936H822.055C822.055 318.557 822.938 321.205 826.468 342.828C830.881 369.858 782.338 389.441 780.408 392.75C778.863 395.398 770.754 446.258 766.893 471.357H747.862V384.476L725.245 471.357H704.284C704.284 471.357 710.627 383.924 714.765 375.374C718.074 368.534 738.209 353.585 747.862 346.966L754.757 319.936Z" fill="#154664"/>
<path d="M748.495 385.166C748.145 381.633 748.471 373.24 752.571 367.929C756.67 362.619 772.137 352.44 779.357 348.014" stroke="#0C3751"/>
<path d="M797.75 211.371L795.207 231.33L779.472 227.926L780.262 220.987C778.31 220.82 774.856 220.262 771.736 216.797C768.615 213.333 769.137 205.744 769.085 203.191C768.167 203.087 765.236 200.215 766.317 198.008C767.73 195.122 769.144 196.005 770.145 196.3L772.089 183.931L798.278 180.044L799.333 202.778C800.931 201.608 804.595 201.742 805.898 205.135C807.201 208.528 800.833 210.765 797.75 211.371Z" fill="#FBC2A2"/>
<path d="M810.435 190.471C810.187 195.413 806.978 202.556 804.411 202.991C803.001 202.274 802.236 201.677 799.393 202.991C798.9 200.241 798.962 191.861 799.182 190.121C795.285 190.682 787.148 190.637 786.245 188.565C785.341 186.492 787.315 185.117 788.356 184.364C788.356 184.364 774.964 183.871 773.307 185.094C771.651 186.316 769.941 196.056 769.941 196.056C769.941 189.145 770.616 184.012 771.062 183.044C770.004 183.139 769.138 183.36 768.788 181.804C768.545 180.725 769.637 179.045 770.425 178.192C769.261 176.887 766.706 175.651 768.394 172.834C769.827 170.442 795.322 167.181 800.106 175.77C799.89 174.237 800.146 172.488 801.846 171.978C803.546 171.468 805.204 175.243 805.72 178.192C807.356 178.044 810.171 179.832 810.435 181.337C810.699 182.841 808.409 182.296 806.684 182.239C807.339 183.961 810.652 186.134 810.435 190.471Z" fill="#154664"/>
<path d="M703.859 268.801L695.538 272.174C694.093 266.445 682.986 256.616 684.139 254.781C684.519 254.175 687.447 256.155 688.507 257.523C687.785 255.529 685.955 252.201 687.341 251.417C688.35 250.847 690.449 253.957 691.619 256.314C690.794 254.011 688.434 249.324 689.884 248.529C691.123 247.85 692.585 251.029 694.182 253.503C693.425 251.135 691.176 246.558 692.909 245.605C694.216 244.885 698.448 253.271 700.464 257.079C701.32 255.372 704.078 251.819 705.473 252.067C707.02 252.342 705.121 254.867 703.859 257.877C702.436 261.27 703.679 266.417 703.859 268.801Z" fill="#FBC2A2"/>
<path d="M746.593 348.03L774.716 350.231V315.261H800.638V350.231L828.273 348.03L827.05 310.859C833.327 309.147 844.475 306.772 848.52 298.631C852.894 289.827 836.266 255.438 830.397 248.591C825.702 243.113 804.551 232.114 796.237 229.179H777.651C768.276 234.967 751.081 241.415 744.148 250.455C737.908 258.59 731.451 289.827 721.404 289.827C716.867 289.827 709.421 274.747 706.242 267.573L693.037 271.975C697.08 287.961 702.288 317.957 721.404 317.957C736.867 317.957 741.947 305.153 744.148 298.631L746.593 348.03Z" fill="#306F9B"/>
<path d="M778.127 229.675L779.886 225.893C781.118 226.978 784.442 229.147 787.89 229.147C791.338 229.147 794.722 226.978 795.982 225.893L798.181 229.675L800.59 320.184H774.835L778.127 229.675Z" fill="white"/>
<path d="M781.995 233.682L786.536 230.09L790.196 233.682L788.027 236.19L793.721 316.572L783.825 332.025L776.777 316.572L783.622 236.19L781.995 233.682Z" fill="#19AAEE"/>
<path d="M819.263 272.336L825.562 287.078L801.038 301.551L805.326 316.024L827.438 310.797" stroke="#23577B" stroke-linecap="round" stroke-linejoin="round"/>
<path d="M807.516 258.652L800.293 309.857L798.166 229.697L807.483 234.111L801.085 255.931L807.516 258.652Z" fill="#23577B"/>
<path d="M778.558 228.652L775.217 309.857L767.691 261.002L773.133 257.663L767.691 234.411L778.558 228.652Z" fill="#23577B"/>
<path d="M801.638 305.409L804.195 314.015C798.353 314.903 787.501 325.012 785.786 323.689C785.22 323.252 787.472 320.529 788.936 319.605C786.881 320.131 783.393 321.633 782.746 320.178C782.275 319.118 785.573 317.329 788.032 316.391C785.66 316.991 780.767 318.889 780.116 317.369C779.559 316.07 782.864 314.921 785.48 313.569C783.05 314.095 778.278 315.894 777.496 314.077C776.906 312.707 785.66 309.301 789.644 307.66C788.027 306.645 784.756 303.558 785.137 302.193C785.559 300.679 787.89 302.813 790.765 304.358C794.005 306.1 799.248 305.358 801.638 305.409Z" fill="#FBC2A2"/>
<path d="M728.482 337.35L736.519 491.656" stroke="#154664" stroke-width="2" stroke-linecap="round"/>
<path d="M656.82 495.846C656.792 496.398 657.215 496.868 657.767 496.897C658.319 496.925 658.789 496.501 658.818 495.95L656.82 495.846ZM665.134 335.814L656.82 495.846L658.818 495.95L667.131 335.918L665.134 335.814Z" fill="#154664"/>
<rect x="256.132" y="325.22" width="498.022" height="14.7755" rx="2" fill="#154664"/>
<path d="M654.183 325.22H749.327C751.221 325.22 751.289 322.251 749.327 322.251H718.698C717.894 322.251 717.168 321.77 716.855 321.03L698.517 277.66C698.204 276.92 697.478 276.439 696.675 276.439H633.804C632.349 276.439 631.381 277.943 631.984 279.267L652.363 324.049C652.687 324.762 653.399 325.22 654.183 325.22Z" fill="#154664"/>
<path d="M654.225 325.052H749.288" stroke="#3F647B" stroke-linecap="round"/>
<circle cx="673.954" cy="300.829" r="3.76969" fill="#B5D1DD"/>
<path d="M172.524 496.256L186.748 438.053" stroke="#306F9B" stroke-width="4" stroke-linecap="round" stroke-linejoin="round"/>
<path d="M227.464 496.517L238.947 452.93" stroke="#306F9B" stroke-width="4" stroke-linecap="round" stroke-linejoin="round"/>
<path d="M151.847 404.323C135.555 371.427 121.916 292.082 191.067 287.179C260.218 282.276 283.268 346.869 281.892 382.391C289.547 372.414 315.83 387.182 322.144 407.161C339.432 461.863 192.357 486.118 151.847 404.323Z" fill="#19AAEE"/>
<path d="M266.792 485.395V474.488L278.506 471.605V485.395H266.792Z" fill="#FBC2A2"/>
<path d="M317.694 484.257V470.087L329.407 466.341V484.257H317.694Z" fill="#FBC2A2"/>
<path d="M266.605 493.446V480.578L278.388 480.578C287.017 482.591 294.141 487.547 298.155 491.543C299.302 492.685 298.436 494.446 296.818 494.446H267.605C267.052 494.446 266.605 493.999 266.605 493.446Z" fill="#154664"/>
<path d="M317.694 493.446V480.578L329.477 480.578C338.106 482.591 345.23 487.547 349.244 491.543C350.391 492.685 349.525 494.446 347.907 494.446H318.694C318.141 494.446 317.694 493.999 317.694 493.446Z" fill="#154664"/>
<path d="M206.344 406.965C192.416 401.238 187.958 387.766 187.47 381.746C211.821 381.15 269.251 376.887 303.476 379.957C339.758 383.211 337.968 428.441 336.178 469.116L310.472 472.208C310.472 451.382 311.611 423.886 293.714 404.687C295.991 416.239 287.694 455.667 282.975 475.299H264.428L258.733 412.66C247.073 413.148 220.271 412.692 206.344 406.965Z" fill="#306F9B"/>
<path d="M293.502 404.331C293.562 398.296 289.959 385.855 274.752 383.103" stroke="#23577B" stroke-linecap="round" stroke-linejoin="round"/>
<path d="M164.156 315.541C169.723 300.749 187.551 296.52 195.769 296.255L196.962 288.501L221.226 290.987L220.622 298.442C223.936 298.84 233.458 299.88 241.688 305.859C251.659 313.103 259.566 351.142 275.696 380.158L211.573 381.025C206.176 382.08 188.614 388.675 175.672 385.107C151.412 378.418 157.198 334.032 164.156 315.541Z" fill="#D9EBEF"/>
<path d="M226.259 375.558C224.741 373.763 220.463 373.763 217.887 373.763V364.545L227.145 365.703C229.663 365.256 235.673 363.634 238.451 363.78C241.228 363.927 248.221 367.408 251.511 368.748L245.176 378.86C244.14 379.022 241.643 379.055 239.937 377.885C237.805 376.423 228.046 377.669 226.259 375.558Z" fill="#FBC2A2"/>
<path d="M211.259 380.692L217.39 376.116C217.896 375.739 218.194 375.145 218.194 374.513V364.899C218.194 363.906 217.466 363.064 216.483 362.92L188.083 358.772C187.1 358.628 186.372 357.786 186.372 356.793V332.42" stroke="#B5D1DD"/>
<path d="M238.233 323.5C239.248 339.036 243.521 365.52 251.249 369.544" stroke="#B5D1DD" stroke-linecap="round" stroke-linejoin="round"/>
<path d="M307.114 382.853H211.97C210.076 382.853 210.008 379.884 211.97 379.884H242.599C243.403 379.884 244.128 379.403 244.441 378.663L262.78 335.293C263.093 334.553 263.818 334.072 264.622 334.072H327.493C328.948 334.072 329.916 335.576 329.313 336.9L308.934 381.682C308.61 382.395 307.898 382.853 307.114 382.853Z" fill="#5394BB"/>
<path d="M201.744 273.207L201.144 289.805L218.03 291.638L218.503 285.011C220.462 285.067 225.265 286.361 228.757 283.271C232.25 280.182 232.13 274.103 232.47 271.573C233.394 271.573 235.971 270.818 236.337 268.388C236.836 265.072 234.345 264.409 232.974 263.681V248.822L204.766 242.022L201.144 264.491C199.688 263.147 196.958 262.305 195.279 265.528C193.6 268.752 198.749 272.256 201.744 273.207Z" fill="#FBC2A2"/>
<path d="M209.184 249.886C208.815 251.852 208.517 255.862 207.436 256.648C206.355 257.434 204.473 256.276 204.023 255.539C204.064 258.816 203.654 265.541 201.688 266.229C199.23 267.089 193.201 255.531 193.514 250.593C193.789 246.259 195.986 244.056 196.832 242.419C195.112 242.281 191.78 241.637 192.212 240.172C192.645 238.707 195.972 239.007 197.581 239.34C198.427 236.468 200.527 230.9 202.159 231.599C203.79 232.298 203.421 235.47 203.033 236.968C207.028 233.527 211.149 230.837 215.701 230.439C219.111 230.142 216.35 234.685 214.895 235.044C219.006 234.142 227.846 232.77 230.666 234.429C233.496 236.094 231.595 238.84 230.291 240.006C233.108 241.235 237.976 244.45 238.904 246.704C239.853 249.008 236.188 249.128 235.147 248.914C235.48 249.926 235.978 252.604 235.147 252.891C231.568 254.129 224.437 250.174 219.013 248.662C220.012 250.726 221.867 254.245 220.032 254.703C217.593 255.313 212.543 251.77 209.184 249.886Z" fill="#154664"/>
<rect x="472.392" y="158.127" width="38.8528" height="20.0668" rx="5" fill="#306F9B"/>
<path d="M473.513 164.751C484.423 169.357 498.971 169.236 510.123 164.751" stroke="#154664" stroke-width="8" stroke-linecap="round"/>
<path d="M473.513 158.932C484.423 163.539 498.971 163.417 510.123 158.932" stroke="#306F9B" stroke-width="8" stroke-linecap="round"/>
<path d="M473.513 153.113C484.423 157.72 498.971 157.599 510.123 153.113" stroke="#154664" stroke-width="8" stroke-linecap="round"/>
<path d="M492.868 36.6132C466.067 36.6132 444.34 55.8505 444.34 79.5809C444.34 88.7427 447.578 97.2348 453.097 104.209C458.412 111.201 469.091 126.234 469.29 130.426C469.54 135.666 469.081 142.636 470.448 145.701C473.188 151.845 484.011 152.382 492.868 152.632C501.725 152.881 511.525 150.897 514.285 144.321C515.796 140.72 514.693 132.872 516.233 127.923C517.35 124.336 525.22 113.834 529.233 108.033L529.306 107.928C535.517 98.9498 541.396 90.4506 541.396 79.5809C541.396 55.8505 519.669 36.6132 492.868 36.6132Z" fill="#B5D1DD"/>
<path d="M500.907 152.31L508.312 72.8628M482.897 152.31L475.492 72.8628" stroke="#154664" stroke-width="2" stroke-linecap="round"/>
<path d="M476.582 84.5222C477.061 92.479 489.697 96.7949 489.393 84.3299C489.014 68.794 482.042 74.9326 482.991 83.3733C483.94 91.8139 486.89 92.6827 490.391 92.6031C493.892 92.5235 496.275 90.2442 496.597 83.8507C496.896 77.9261 490.98 76.4325 492.141 84.6463C493.513 94.3483 498.303 91.311 501.451 88.7839C505.536 85.5046 504.156 74.8011 500.61 75.0084C496.363 75.2566 497.605 91.0671 502.542 91.1885C505.345 91.2574 506.786 89.208 506.918 87.9084" stroke="#154664" stroke-width="2" stroke-linecap="round"/>
<rect x="700.226" y="83.4686" width="27.8178" height="27.8178" rx="3" stroke="#5394BB" stroke-width="2" stroke-linejoin="round"/>
<path d="M705.03 93.0749L713.635 104.482L729.844 80.2673" stroke="#5394BB" stroke-width="2" stroke-linecap="round"/>
<rect x="750.833" y="123.917" width="27.8178" height="27.8178" rx="3" stroke="#5394BB" stroke-width="2" stroke-linejoin="round"/>
<path d="M755.637 133.524L764.242 144.93L780.451 120.716" stroke="#5394BB" stroke-width="2" stroke-linecap="round"/>
<rect x="268.53" y="172.958" width="58.8353" height="82.0089" rx="1" fill="white"/>
<path d="M273.375 194.359H323.258M273.375 198.354H323.258M273.375 203.263H323.258M273.375 206.801H323.258M273.375 210.568H323.258M273.375 214.221H323.258M273.375 228.376H323.258M273.375 231.572H323.258M273.375 235.453H323.258M273.375 239.334H323.258M284.333 183.401L309.788 183.401" stroke="#D9E7EF" stroke-linecap="round"/>
</svg>
