<svg xmlns="http://www.w3.org/2000/svg" width="6.1297in" height="2.8062in" viewBox="0 0 441.3375 202.0461"><defs><style>.a{fill:#23303f;}.b{fill:#1cabed;}</style></defs><title>whoo-logo-with-text</title><path class="a" d="M.1,69.7H23.7a1.5224,1.5224,0,0,1,1.7,1.1c5.4,13,10.8,26,16.1,39a9.25,9.25,0,0,0,.5,1c1.7-4,3.3-7.9,4.9-11.8C51,89.2,55,79.5,59,69.7a1.7007,1.7007,0,0,1,3.1,0c5.5,13.3,11,26.5,16.5,39.8a9.7439,9.7439,0,0,0,.5,1.1c.4-.3.4-.7.6-1,5.3-12.9,10.7-25.8,16-38.7.4-.9.7-1.2,1.7-1.2,7.5.1,15,0,22.6,0,.9,0,1.2.1.8,1.1q-19.35,46.35-38.7,92.6c-.3.7-.7,1-1.4.9-1.2-.1-2.7.4-3.6-.2-.8-.5-1-2.1-1.4-3.2-4.8-12.1-9.7-24.2-14.5-36.3a1.738,1.738,0,0,0-.6-1.1c-.8,2-1.5,4-2.3,5.9L45.1,163.3c-.3.8-.7,1.1-1.5,1-1.2-.1-2.6.3-3.5-.2-.8-.5-1-2-1.5-3.1Q19.85,116.15,1,71.2c-.1-.3-.2-.8-.6-1C.1,70,.1,69.9.1,69.7Z" transform="translate(-0.1 -0.7804)"/><path class="a" d="M379,165c-18.8-.3-33.5-8.2-43.7-24-5.5-8.5-7.2-18.1-6.5-28.1.1-2.1,0-4.2-.1-6.3a76.3706,76.3706,0,0,1,.5-11.7c1.3-11.1,4.9-21.3,11.6-30.3a76.0985,76.0985,0,0,1,17.8-17.1,142.9344,142.9344,0,0,1,18-10.8c3.7-1.9,7.5-3.7,11.3-5.5,5.9-2.7,11.8-5.5,17.7-8.1,5.4-2.4,10.6-5,15.7-7.9,6.5-3.7,12.7-8,17.5-13.9a.8745.8745,0,0,1,.9-.5c.5.1.4.6.4.9.4,4.1.8,8.3,1,12.4.3,4.3.4,8.5.3,12.8a134.7855,134.7855,0,0,1-1.2,15.5,75.7911,75.7911,0,0,1-4.9,18.1,62.4923,62.4923,0,0,1-11.6,18.3,55.7541,55.7541,0,0,1-6.1,5.8c-.7.6-.7.9-.1,1.6a44.2044,44.2044,0,0,1,11.2,23.4c2.4,17.5-3,32.1-16.6,43.5a49.2569,49.2569,0,0,1-24.6,11.3A60.7309,60.7309,0,0,1,379,165Zm-.1-72.7h-2.5a9.8625,9.8625,0,0,0-2.4.3c-7.5,1.3-13.1,5.6-17.5,11.5-4.6,6.3-5.4,13.3-2.8,20.6a26.9989,26.9989,0,0,0,30.9,16.4,27.5426,27.5426,0,0,0,16.4-11c5.4-7.3,6.2-15.6,1.7-23.4C397.6,97.7,389.7,92.4,378.9,92.3Z" transform="translate(-0.1 -0.7804)"/><path class="a" d="M273.6,165c-18.9-.3-33.7-8.3-43.9-24.3-5.3-8.4-7-17.8-6.3-27.7A44.3313,44.3313,0,0,1,234,87.3c.6-.7.6-1-.1-1.6a61.7688,61.7688,0,0,1-12.9-15,68.069,68.069,0,0,1-8.7-23.5,104.0711,104.0711,0,0,1-1.7-17.7c-.2-6.2.2-12.4.6-18.5.2-2.6.5-5.2.7-7.9,0-.3,0-.8.4-.9.5-.1.7.2,1,.6A58.8175,58.8175,0,0,0,229,15.6,127.55,127.55,0,0,0,243.2,23c5.2,2.4,10.5,4.8,15.7,7.1,4.3,1.9,8.6,3.8,12.8,6,3,1.6,6.1,3,9.1,4.7a128.9293,128.9293,0,0,1,12.7,8c8.2,5.9,15.3,12.8,20.6,21.4a62.9826,62.9826,0,0,1,8,21.4,83.5621,83.5621,0,0,1,1.3,15.8,40.68,40.68,0,0,0,.5,4.9c1.6,20.1-7,35-23.7,45.5C291.9,163,283,165,273.6,165Zm0-72.8a26.2853,26.2853,0,0,0-4.9.4c-7.5,1.3-13,5.6-17.4,11.4-4.7,6.3-5.5,13.4-2.8,20.7a26.91,26.91,0,0,0,47.2,5.4c5.4-7.3,6.1-15.5,1.7-23.3C292.3,97.7,284.4,92.4,273.6,92.2Z" transform="translate(-0.1 -0.7804)"/><path class="a" d="M207,117.1v46c0,1-.2,1.3-1.2,1.3-6.9-.1-13.8,0-20.6,0-1,0-1.3-.2-1.2-1.2,0-11.1,0-22.2.1-33.4,0-1-.2-1.2-1.2-1.2H153.6c-1,0-1.2.2-1.2,1.2,0,11.1,0,22.2.1,33.4,0,1-.3,1.2-1.2,1.2H130.7c-.9,0-1.2-.1-1.2-1.1V70.9c0-.9.3-1.1,1.1-1.1h20.9c1,0,1.1.3,1.1,1.1v33.5c0,1,.2,1.3,1.3,1.3h29.2c1.1,0,1.3-.3,1.3-1.3V71c0-.9.1-1.3,1.2-1.3,6.8.1,13.7.1,20.5,0,1,0,1.4.2,1.4,1.3C207,86.4,207,101.7,207,117.1Z" transform="translate(-0.1 -0.7804)"/><path class="a" d="M326,145.3c.3,0,.4.2.6.3,6,5.5,12,11.1,18.1,16.6,1.4,1.3,2.8,2.6,4.3,3.9.4.3.5.5.2,1.1-3.1,4.8-6.1,9.7-9.2,14.5-2.6,4.1-5.3,8.2-7.9,12.3-1.7,2.6-3.3,5.3-5,7.9-.8,1.3-1.2,1.2-2-.1-5.4-8.4-10.7-16.9-16.1-25.3-1.9-3-3.9-6.1-5.8-9.1a.9132.9132,0,0,1,.2-1.4l14.4-13.2c2.6-2.3,5.1-4.7,7.7-7A.5357.5357,0,0,1,326,145.3Z" transform="translate(-0.1 -0.7804)"/><path class="b" d="M378.4,98.8A17.7865,17.7865,0,0,1,395.7,112c1.7,7-.1,13.1-5.3,17.8a16.6166,16.6166,0,0,1-16.2,4A17.1527,17.1527,0,0,1,361.8,123a17.3482,17.3482,0,0,1-.7-10.8c.1-.2.1-.5.4-.5.3-.1.5.1.7.4a10.3075,10.3075,0,0,0,2.7,2.8,8.6027,8.6027,0,0,0,12.7-4,8.4627,8.4627,0,0,0-3.3-10.4c-.3-.2-.8-.3-.7-.8.1-.6.6-.4,1-.5A12.9557,12.9557,0,0,1,378.4,98.8Z" transform="translate(-0.1 -0.7804)"/><path class="b" d="M255.5,116.8a11.28,11.28,0,0,1,.5-4.1c.1-.3.1-.6.4-.7.4-.1.6.2.7.5a8.6594,8.6594,0,0,0,4.7,3.7,8.4031,8.4031,0,0,0,8.3-1.6,8.4954,8.4954,0,0,0-1-13.8c-.3-.2-.7-.3-.6-.8.1-.6.6-.4,1-.5a17.116,17.116,0,0,1,14.7,3.1c5.5,4.2,7.8,9.9,6.9,16.8A17.1411,17.1411,0,0,1,280,133.5c-7.2,3.1-16.7.2-21.1-6.3A17.053,17.053,0,0,1,255.5,116.8Z" transform="translate(-0.1 -0.7804)"/></svg>